HIERARCHY
ROOT Hips
{
	OFFSET 0.00 0.00 0.00
	CHANNELS 6 Xposition Yposition Zposition Xrotation Yrotation Zrotation
	JOINT Spine
	{
		OFFSET 0.00000 1.75157 2.62736
		CHANNELS 3 Xrotation Yrotation Zrotation
		JOINT Spine1
		{
			OFFSET 0.00000 0.60831 3.44992
			CHANNELS 3 Xrotation Yrotation Zrotation
			JOINT Spine2
			{
				OFFSET 0.00000 0.30532 3.48981
				CHANNELS 3 Xrotation Yrotation Zrotation
				JOINT Spine3
				{
					OFFSET 0.00000 0.00000 3.50314
					CHANNELS 3 Xrotation Yrotation Zrotation
					JOINT Neck
					{
						OFFSET 0.00000 -1.31367 9.19575
						CHANNELS 3 Xrotation Yrotation Zrotation
						JOINT Head
						{
							OFFSET 0.00000 -0.83643 4.74364
							CHANNELS 3 Xrotation Yrotation Zrotation
							End Site
							{
								OFFSET 0.00000 0.00001 5.67071
							}
						}
					}
					JOINT RightShoulder
					{
						OFFSET -1.05974 -1.76624 5.72262
						CHANNELS 3 Xrotation Yrotation Zrotation
						JOINT RightArm
						{
							OFFSET -5.26340 0.00000 0.00000
							CHANNELS 3 Xrotation Yrotation Zrotation
							JOINT RightForeArm
							{
								OFFSET -10.14667 0.00000 0.00000
								CHANNELS 3 Xrotation Yrotation Zrotation
								JOINT RightHand
								{
									OFFSET -8.53343 0.00000 0.00000
									CHANNELS 3 Xrotation Yrotation Zrotation
									JOINT RightHandEnd
									{
										OFFSET -2.46135 0.00000 0.00000
										CHANNELS 3 Xrotation Yrotation Zrotation
										End Site
										{
											OFFSET -2.46135 0.00000 0.00000
										}
									}
									JOINT RightHandThumb1
									{
										OFFSET -0.98454 -1.64090 -0.65636
										CHANNELS 3 Yrotation Xrotation Zrotation
										End Site
										{
											OFFSET -2.37748 -0.63704 0.00000
										}
									}
								}
							}
						}
					}
					JOINT LeftShoulder
					{
						OFFSET 1.05974 -1.76624 5.72262
						CHANNELS 3 Xrotation Yrotation Zrotation
						JOINT LeftArm
						{
							OFFSET 5.26340 0.00000 0.00000
							CHANNELS 3 Xrotation Yrotation Zrotation
							JOINT LeftForeArm
							{
								OFFSET 10.14667 0.00000 0.00000
								CHANNELS 3 Xrotation Yrotation Zrotation
								JOINT LeftHand
								{
									OFFSET 8.53343 0.00000 0.00000
									CHANNELS 3 Xrotation Yrotation Zrotation
									JOINT LeftHandEnd
									{
										OFFSET 2.46135 0.00000 0.00000
										CHANNELS 3 Xrotation Yrotation Zrotation
										End Site
										{
											OFFSET 2.46135 0.00000 0.00000
										}
									}
									JOINT LeftHandThumb1
									{
										OFFSET 0.98454 -1.64090 -0.65636
										CHANNELS 3 Yrotation Xrotation Zrotation
										End Site
										{
											OFFSET 2.37748 -0.63704 0.00000
										}
									}
								}
							}
						}
					}
				}
			}
		}
	}
	JOINT RightUpLeg
	{
		OFFSET -3.14391 0.00000 -0.91845
		CHANNELS 3 Xrotation Yrotation Zrotation
		JOINT RightLeg
		{
			OFFSET 0.00000 0.00000 -14.43197
			CHANNELS 3 Xrotation Yrotation Zrotation
			JOINT RightFoot
			{
				OFFSET 0.00000 0.00000 -14.31693
				CHANNELS 3 Xrotation Yrotation Zrotation
				JOINT RightToeBase
				{
					OFFSET 0.00000 -4.51635 -1.64382
					CHANNELS 3 Xrotation Yrotation Zrotation
					End Site
					{
						OFFSET 0.00000 -2.54339 -0.00000
					}
				}
			}
		}
	}
	JOINT LeftUpLeg
	{
		OFFSET 3.14391 0.00000 -0.91845
		CHANNELS 3 Xrotation Yrotation Zrotation
		JOINT LeftLeg
		{
			OFFSET 0.00000 0.00000 -14.43197
			CHANNELS 3 Xrotation Yrotation Zrotation
			JOINT LeftFoot
			{
				OFFSET 0.00000 0.00000 -14.31693
				CHANNELS 3 Xrotation Yrotation Zrotation
				JOINT LeftToeBase
				{
					OFFSET 0.00000 -4.51635 -1.64382
					CHANNELS 3 Xrotation Yrotation Zrotation
					End Site
					{
						OFFSET 0.00000 -2.54339 -0.00000
					}
				}
			}
		}
	}
}
MOTION
Frames: 7
Frame Time: 0.008342
 28.4583 -24.1224 31.8234 2.3413 -2.6566 -93.4223 -0.8081 -0.6008 0.2597 -0.7165 -0.8081 -0.0596 -0.2711 0.0578 -0.5776 0.2083 0.1192 -0.1912 2.2152 0.1721 -0.4171 7.0593 -2.8151 0.8065 -2.8860 9.6354 2.8369 -6.2210 -5.6257 -5.6325 0.0000 0.0000 2.0054 3.3980 11.4167 -8.9337 -0.0000 -0.0000 -0.0000 0.0000 -0.0000 0.0000 -4.0196 -11.0258 -2.7409 0.9286 12.9803 16.3145 -0.0000 -0.0000 -10.3422 3.7708 -9.2076 3.8861 0.0000 0.0000 -0.0000 -0.0000 -0.0000 -0.0000 0.8280 -0.2713 -10.5521 0.3059 0.0000 0.0000 -5.5139 -4.2941 -10.2106 0.5476 0.0000 0.0000 -1.0434 -5.3779 27.1001 3.6588 0.0000 0.0000 -3.4973 4.5607 2.4713 0.0682 0.0000 0.0000
 28.4587 -24.1222 31.8233 2.3427 -2.6562 -93.4234 -0.8059 -0.5985 0.2600 -0.7160 -0.8074 -0.0598 -0.2717 0.0543 -0.5803 0.2080 0.1223 -0.1888 2.2211 0.1643 -0.4236 7.0579 -2.8068 0.8155 -2.8826 9.6253 2.8356 -6.2190 -5.6142 -5.6255 0.0000 0.0000 2.0009 3.3892 11.4012 -8.9266 0.0000 0.0000 0.0000 0.0000 0.0000 -0.0000 -3.9972 -11.0248 -2.7124 0.9101 12.9764 16.2803 -0.0000 -0.0000 -10.3929 3.7703 -9.2423 4.0689 0.0000 0.0000 -0.0000 0.0000 0.0000 -0.0000 0.8274 -0.2732 -10.5494 0.3065 0.0000 0.0000 -5.5134 -4.2937 -10.2099 0.5425 0.0000 0.0000 -1.0425 -5.3798 27.0998 3.6571 0.0000 0.0000 -3.4965 4.5643 2.4720 0.0675 0.0000 0.0000
 28.4592 -24.1219 31.8232 2.3454 -2.6564 -93.4238 -0.8034 -0.5979 0.2596 -0.7154 -0.8050 -0.0593 -0.2725 0.0494 -0.5829 0.2077 0.1264 -0.1871 2.2277 0.1567 -0.4298 7.0577 -2.7992 0.8251 -2.8765 9.6166 2.8312 -6.2185 -5.6051 -5.6141 0.0000 0.0000 1.9938 3.3845 11.3884 -8.9197 0.0000 0.0000 0.0000 0.0000 -0.0000 0.0000 -3.9731 -11.0240 -2.6811 0.8891 12.9710 16.2416 -0.0000 -0.0000 -10.4449 3.7700 -9.2773 4.2597 -0.0000 0.0000 0.0000 0.0000 0.0000 0.0000 0.8263 -0.2769 -10.5458 0.3068 0.0000 0.0000 -5.5122 -4.2937 -10.2100 0.5403 0.0000 0.0000 -1.0432 -5.3839 27.0985 3.6566 0.0000 0.0000 -3.4969 4.5657 2.4732 0.0670 0.0000 0.0000
 28.4600 -24.1215 31.8232 2.3482 -2.6575 -93.4241 -0.8010 -0.5968 0.2598 -0.7147 -0.8034 -0.0595 -0.2739 0.0450 -0.5854 0.2074 0.1302 -0.1849 2.2356 0.1511 -0.4353 7.0577 -2.7933 0.8340 -2.8696 9.6083 2.8271 -6.2191 -5.5951 -5.6046 0.0000 0.0000 1.9877 3.3823 11.3736 -8.9147 -0.0000 0.0000 0.0000 0.0000 -0.0000 0.0000 -3.9509 -11.0218 -2.6527 0.8674 12.9630 16.2057 -0.0000 -0.0000 -10.4977 3.7698 -9.3087 4.4478 -0.0000 0.0000 0.0000 0.0000 0.0000 0.0000 0.8235 -0.2806 -10.5418 0.3076 0.0000 0.0000 -5.5106 -4.2940 -10.2097 0.5435 0.0000 0.0000 -1.0453 -5.3882 27.0963 3.6562 0.0000 0.0000 -3.4976 4.5649 2.4759 0.0675 0.0000 0.0000
 28.4611 -24.1210 31.8231 2.3514 -2.6610 -93.4239 -0.8000 -0.5968 0.2595 -0.7141 -0.8019 -0.0593 -0.2755 0.0413 -0.5869 0.2070 0.1342 -0.1828 2.2442 0.1470 -0.4404 7.0586 -2.7892 0.8425 -2.8634 9.6025 2.8232 -6.2188 -5.5882 -5.5976 0.0000 0.0000 1.9814 3.3847 11.3616 -8.9099 0.0000 -0.0000 0.0000 -0.0000 -0.0000 -0.0000 -3.9320 -11.0192 -2.6282 0.8466 12.9536 16.1721 -0.0000 -0.0000 -10.5467 3.7703 -9.3361 4.6226 0.0000 -0.0000 0.0000 0.0000 0.0000 0.0000 0.8175 -0.2852 -10.5374 0.3089 0.0000 0.0000 -5.5084 -4.2944 -10.2100 0.5529 0.0000 0.0000 -1.0513 -5.3938 27.0932 3.6579 0.0000 0.0000 -3.4995 4.5608 2.4795 0.0691 0.0000 0.0000
 28.4624 -24.1205 31.8231 2.3544 -2.6663 -93.4230 -0.7997 -0.5971 0.2591 -0.7134 -0.8010 -0.0591 -0.2776 0.0391 -0.5875 0.2065 0.1377 -0.1813 2.2529 0.1455 -0.4441 7.0610 -2.7881 0.8498 -2.8579 9.5991 2.8194 -6.2190 -5.5837 -5.5938 0.0000 0.0000 1.9772 3.3922 11.3506 -8.9092 0.0000 -0.0000 -0.0000 0.0000 -0.0000 -0.0000 -3.9175 -11.0162 -2.6087 0.8275 12.9430 16.1429 -0.0000 -0.0000 -10.5896 3.7726 -9.3572 4.7754 -0.0000 -0.0000 -0.0000 0.0000 -0.0000 0.0000 0.8090 -0.2895 -10.5333 0.3107 0.0000 0.0000 -5.5058 -4.2950 -10.2100 0.5686 0.0000 0.0000 -1.0602 -5.3994 27.0891 3.6602 0.0000 0.0000 -3.5020 4.5530 2.4843 0.0710 0.0000 0.0000
 28.4635 -24.1199 31.8230 2.3573 -2.6683 -93.4218 -0.7965 -0.5980 0.2592 -0.7114 -0.8002 -0.0590 -0.2807 0.0380 -0.5868 0.2055 0.1408 -0.1808 2.2625 0.1461 -0.4460 7.0637 -2.7906 0.8551 -2.8531 9.5998 2.8161 -6.2184 -5.5830 -5.5929 0.0000 0.0000 1.9732 3.4030 11.3401 -8.9090 0.0000 -0.0000 0.0000 -0.0000 -0.0000 -0.0000 -3.9062 -11.0147 -2.5942 0.8101 12.9333 16.1179 -0.0000 -0.0000 -10.6240 3.7753 -9.3715 4.8993 0.0000 0.0000 -0.0000 0.0000 0.0000 -0.0000 0.8053 -0.2937 -10.5287 0.3106 0.0000 0.0000 -5.5025 -4.2961 -10.2106 0.5905 0.0000 0.0000 -1.0647 -5.4043 27.0868 3.6610 0.0000 0.0000 -3.5044 4.5427 2.4878 0.0733 0.0000 0.0000
